<svg width="24" height="24" fill="none" xmlns="http://www.w3.org/2000/svg"><path d="M6.42 2.278c-.914.108-1.733.801-2.049 1.733l-.111.329v15.32l.111.329A2.634 2.634 0 0 0 6.1 21.666c.228.07.518.074 5.9.074 5.382 0 5.672-.004 5.9-.074a2.634 2.634 0 0 0 1.729-1.677l.111-.329V14.4c0-4.486-.008-5.28-.058-5.397-.075-.178-6.268-6.554-6.472-6.663-.146-.078-.232-.08-3.35-.085-1.76-.003-3.308.008-3.44.023m4.829 4.732c.011 3.167.013 3.253.091 3.386a.652.652 0 0 0 .466.327c.096.018 1.582.034 3.304.035l3.13.002v4.341c0 4.733.013 4.457-.224 4.768a1.274 1.274 0 0 1-.269.243l-.167.108H6.42l-.167-.108a1.173 1.173 0 0 1-.432-.523c-.054-.13-.061-.997-.061-7.589 0-8.132-.017-7.553.224-7.869.106-.138.342-.307.478-.342.043-.011 1.135-.022 2.427-.024l2.348-.005.012 3.25m4.371-.11c.789.814 1.625 1.673 1.857 1.91l.422.43H12.76V3.971l.712.725c.392.398 1.358 1.39 2.148 2.204" fill-rule="evenodd" fill="#000"/></svg>