<svg width="48" height="48" fill="none" xmlns="http://www.w3.org/2000/svg"><path d="M22.24 4.078c-5.567.557-10.431 3.17-13.853 7.442a19.938 19.938 0 0 0-1.022 23.546c6.174 9.243 18.527 11.706 27.755 5.533 9.19-6.148 11.635-18.517 5.479-27.719-3.142-4.696-7.961-7.756-13.613-8.643-1.168-.183-3.667-.267-4.746-.159m3.82 15.468c3.223 2.417 5.86 4.421 5.86 4.454 0 .049-11.486 8.706-11.82 8.909-.08.048-.1-1.754-.1-8.909 0-7.155.02-8.957.1-8.909.055.034 2.737 2.038 5.96 4.455" fill="#5199FC" fill-rule="evenodd"/></svg>